 <svg version="1.0" xmlns="http://www.w3.org/2000/svg"  width="300.000000pt" height="240.000000pt" viewBox="0 0 300.000000 240.000000"  preserveAspectRatio="xMidYMid meet">  <g transform="translate(0.000000,240.000000) scale(0.100000,-0.100000)" fill="#000000" stroke="none"> <path d="M1714 1859 c-8 -9 -14 -24 -12 -31 2 -8 -12 -32 -31 -54 l-35 -39 -43 43 c-37 36 -49 42 -85 42 -41 0 -45 -4 -275 -233 l-233 -232 0 -45 c0 -45 2 -47 135 -180 l135 -134 -37 -38 c-20 -21 -46 -38 -58 -38 -47 0 -63 -62 -21 -81 32 -15 66 4 66 36 0 13 15 41 35 62 l35 38 37 -37 37 -38 -34 -35 c-19 -20 -44 -35 -56 -35 -50 0 -65 -74 -17 -86 27 -7 67 21 59 42 -3 7 12 30 33 52 l38 39 46 -43 c50 -48 81 -55 126 -28 51 30 449 437 456 467 16 62 1 87 -134 221 l-129 127 36 34 c21 19 47 35 59 35 48 0 54 74 7 86 -29 7 -54 -10 -54 -40 0 -17 -68 -105 -73 -94 -1 2 -17 20 -36 40 l-33 36 37 34 c21 18 46 32 56 30 10 -2 25 8 35 22 15 23 15 28 1 49 -17 27 -52 30 -73 6z m52 -28 c0 -30 -31 -33 -34 -5 -1 17 3 24 16 24 11 0 18 -7 18 -19z m-178 -73 c26 -24 51 -49 55 -56 17 -26 75 -81 80 -76 3 3 11 -5 18 -18 7 -12 20 -29 31 -36 10 -7 18 -19 18 -25 0 -8 -3 -7 -9 2 -5 7 -13 11 -18 8 -5 -3 -16 3 -23 14 -8 10 -19 19 -25 19 -5 0 -21 16 -35 36 -13 20 -33 41 -45 46 -11 5 -31 25 -45 45 -27 40 -74 65 -103 54 -20 -8 -177 -159 -177 -172 0 -4 -15 -18 -32 -30 -18 -13 -39 -29 -46 -36 -7 -7 -18 -13 -23 -13 -5 0 53 63 129 140 163 165 171 168 250 98z m-25 -36 l27 -28 -156 -155 -156 -155 56 -57 c30 -31 59 -57 63 -57 5 0 77 69 160 153 l151 152 126 -125 c69 -69 126 -132 126 -141 0 -19 -425 -443 -448 -446 -9 -2 -31 10 -49 26 l-31 29 156 156 157 155 -60 61 -60 60 -155 -155 -156 -156 -125 126 c-68 69 -126 133 -128 142 -2 10 76 95 210 229 234 234 242 239 292 186z m302 8 c0 -8 -10 -16 -22 -18 -18 -3 -23 2 -23 18 0 16 5 21 23 18 12 -2 22 -10 22 -18z m-325 -275 l-145 -145 -35 35 -35 35 144 144 144 144 35 -34 36 -35 -144 -144z m285 40 c0 -5 8 -9 18 -7 11 2 21 -6 26 -20 4 -13 11 -22 15 -20 3 1 7 -1 9 -5 1 -4 19 -23 39 -41 21 -19 35 -38 32 -43 -3 -5 -10 -7 -15 -3 -5 3 -7 10 -4 15 4 5 3 9 -2 9 -13 0 -133 116 -133 129 0 6 -3 10 -7 10 -20 -3 -27 2 -13 11 14 9 34 -10 35 -35z m-620 5 c4 -6 1 -9 -6 -8 -7 2 -13 -3 -14 -10 0 -8 -11 -20 -25 -27 -14 -8 -22 -14 -18 -15 12 0 -57 -65 -71 -66 -9 0 -8 4 5 13 10 7 14 13 10 13 -4 0 -1 7 8 15 8 8 19 15 24 15 5 0 14 11 20 25 8 18 16 23 29 18 10 -3 15 -3 11 2 -4 4 -3 14 3 22 14 16 16 16 24 3z m-155 -159 c-18 -35 -11 -62 26 -98 20 -19 33 -37 31 -40 -8 -7 -72 57 -80 80 -10 26 3 77 20 77 10 0 11 -4 3 -19z m940 9 c0 -5 -5 -10 -11 -10 -5 0 -7 5 -4 10 3 6 8 10 11 10 2 0 4 -4 4 -10z m10 -43 c0 -26 -42 -82 -53 -71 -3 4 3 18 13 32 11 13 20 33 20 43 0 11 5 19 10 19 6 0 10 -11 10 -23z m-337 -39 l37 -33 -146 -146 -146 -147 -36 40 -35 39 139 139 c76 77 142 139 145 140 3 0 22 -15 42 -32z m277 -52 c0 -9 -152 -156 -161 -156 -15 0 -11 8 21 40 18 18 35 28 43 24 6 -4 8 -3 4 1 -4 5 12 28 35 52 39 38 58 51 58 39z m-783 -56 c18 -16 28 -30 20 -30 -7 0 -26 14 -42 30 -16 17 -25 30 -21 30 5 0 24 -13 43 -30z m53 -44 c0 -11 -19 -15 -25 -6 -3 5 1 10 9 10 9 0 16 -2 16 -4z m18 -41 c-3 -3 -9 2 -12 12 -6 14 -5 15 5 6 7 -7 10 -15 7 -18z m84 -55 c6 0 9 -3 6 -6 -9 -8 72 -84 90 -84 8 0 12 -3 9 -7 -4 -3 -3 -11 2 -17 4 -6 11 -20 15 -31 7 -18 5 -18 -17 3 -13 12 -27 19 -30 15 -4 -3 -7 0 -7 8 -1 19 -53 76 -79 84 -12 3 -21 14 -21 23 0 10 -9 24 -20 32 -11 8 -20 21 -20 28 0 8 13 0 31 -17 17 -17 35 -31 41 -31z m434 5 c-9 -9 -16 -13 -16 -8 0 5 5 14 12 21 6 6 14 10 16 7 2 -2 -3 -11 -12 -20z m-23 -21 c9 -9 -63 -74 -81 -74 -8 0 -13 -3 -9 -6 3 -3 -9 -21 -28 -39 -18 -19 -34 -38 -36 -43 -10 -25 -119 -18 -119 8 0 7 6 8 19 0 11 -5 35 -10 53 -10 27 1 40 10 73 50 22 28 48 52 58 56 9 3 15 10 11 15 -3 5 -2 8 3 7 4 -2 9 0 10 5 4 10 27 36 34 37 3 0 8 -3 12 -6z m-543 -116 c0 6 4 12 8 12 4 0 8 -8 8 -18 0 -25 -32 -22 -34 3 -1 16 1 17 8 5 7 -10 10 -11 10 -2z m100 -95 c0 -5 -4 -14 -9 -21 -6 -10 -10 -9 -14 7 -3 14 0 21 9 21 8 0 14 -3 14 -7z"/> <path d="M663 643 c-19 -7 -16 -60 3 -67 9 -3 36 -6 61 -6 31 0 43 -4 40 -12 -2 -9 -21 -12 -60 -10 -47 3 -57 1 -57 -12 0 -13 11 -16 54 -16 73 0 86 6 86 41 0 29 0 29 -60 29 -47 0 -60 3 -60 15 0 12 13 15 60 15 47 0 60 3 60 15 0 12 -13 15 -57 14 -32 0 -64 -3 -70 -6z"/> <path d="M840 604 c0 -71 11 -84 73 -84 29 0 58 5 65 12 14 14 16 118 2 118 -5 0 -10 -24 -10 -52 l0 -53 -50 0 -50 0 0 53 c0 40 -4 52 -15 52 -11 0 -15 -12 -15 -46z"/> <path d="M1040 585 c0 -37 4 -65 10 -65 6 0 10 23 10 50 l0 50 56 0 c70 0 71 -23 1 -28 -63 -4 -60 -22 3 -22 57 0 80 23 60 60 -9 17 -21 20 -75 20 l-65 0 0 -65z"/> <path d="M1253 643 c-8 -3 -13 -25 -13 -58 0 -61 5 -65 86 -65 43 0 54 3 54 16 0 14 -9 16 -60 11 -47 -4 -60 -2 -60 9 0 10 15 14 60 14 33 0 60 4 60 10 0 6 -27 10 -60 10 -47 0 -60 3 -60 15 0 12 13 15 60 15 47 0 60 3 60 15 0 12 -13 15 -57 14 -32 0 -64 -3 -70 -6z"/> <path d="M1430 585 c0 -37 4 -65 10 -65 6 0 10 24 10 53 l0 53 50 -6 c65 -6 69 -24 8 -28 -27 -2 -48 -7 -48 -12 0 -5 21 -10 48 -12 43 -3 47 -5 44 -27 -3 -16 1 -22 10 -19 8 3 13 21 14 49 0 72 -7 79 -81 79 l-65 0 0 -65z"/> <path d="M1627 643 c-15 -15 -5 -23 28 -23 l35 0 0 -50 c0 -27 5 -50 10 -50 6 0 10 23 10 50 0 49 1 50 30 50 20 0 30 5 30 15 0 12 -14 15 -68 15 -38 0 -72 -3 -75 -7z"/> <path d="M1832 638 c-15 -15 -16 -90 0 -106 17 -17 141 -16 135 1 -2 8 -25 12 -62 12 -37 0 -60 5 -63 13 -3 9 15 12 62 12 37 0 66 4 66 10 0 6 -28 10 -65 10 -51 0 -65 3 -65 15 0 12 14 15 66 15 48 0 65 3 62 13 -6 17 -119 22 -136 5z"/> <path d="M2022 638 c-7 -7 -12 -31 -12 -55 0 -52 16 -63 94 -63 45 0 56 3 56 16 0 14 -10 16 -60 12 l-60 -4 0 38 0 38 60 0 c47 0 60 3 60 15 0 12 -14 15 -63 15 -36 0 -68 -5 -75 -12z"/> <path d="M2209 645 c-5 -47 1 -120 11 -123 9 -3 11 3 8 22 -5 25 -4 26 48 26 51 0 54 -1 54 -25 0 -14 5 -25 10 -25 6 0 10 28 10 65 0 37 -4 65 -10 65 -5 0 -10 -13 -10 -30 0 -29 -1 -30 -50 -30 -49 0 -50 1 -50 30 0 17 -4 30 -10 30 -5 0 -10 -2 -11 -5z"/> </g> </svg> 